<?xml version="1.0" encoding="UTF-8" standalone="no"?>
<!-- Created with Inkscape (http://www.inkscape.org/) -->

<svg
   width="900mm"
   height="600mm"
   viewBox="0 0 900 600"
   version="1.1"
   id="svg1"
   xml:space="preserve"
   inkscape:export-filename="Comic_mine_1.png"
   inkscape:export-xdpi="96"
   inkscape:export-ydpi="96"
   xmlns:inkscape="http://www.inkscape.org/namespaces/inkscape"
   xmlns:sodipodi="http://sodipodi.sourceforge.net/DTD/sodipodi-0.dtd"
   xmlns="http://www.w3.org/2000/svg"
   xmlns:svg="http://www.w3.org/2000/svg"><sodipodi:namedview
     id="namedview1"
     pagecolor="#aa5fa0"
     bordercolor="#000000"
     borderopacity="0.25"
     inkscape:showpageshadow="2"
     inkscape:pageopacity="0.0"
     inkscape:pagecheckerboard="0"
     inkscape:deskcolor="#d1d1d1"
     inkscape:document-units="mm"
     showguides="false" /><defs
     id="defs1" /><g
     inkscape:label="Capa 1"
     inkscape:groupmode="layer"
     id="layer1"><rect
       style="fill:#000000;fill-opacity:1;stroke:#000000;stroke-width:0.871;stroke-linecap:round;stroke-linejoin:round;stroke-miterlimit:21.5"
       id="rect1"
       width="963.24323"
       height="634.13513"
       x="-8.7156363"
       y="-6.2498069"
       sodipodi:insensitive="true" /><path
       style="fill:#4d4d4d;fill-opacity:1;stroke:#000000;stroke-width:0.871;stroke-linecap:round;stroke-linejoin:round;stroke-miterlimit:21.5"
       d="M 465.56751,278.27026 222.08101,-299.67567 -109.70271,-297 449.51351,291.64865 -227.43245,-50.837837 -224.75677,208.7027 438.81081,313.05405 -232.7838,420.08108 v 251.51349 l 679.62161,-339.8108 -561.89187,596.67568 337.13507,2.67568 240.8109,-594 5.3513,591.32432 h 259.5405 L 486.97291,331.78377 1043.5135,931.13513 1169.2702,676.94593 495.00001,318.40541 1169.2702,425.43243 V 203.35135 L 492.32431,302.35134 1171.9459,-56.189189 1032.8108,-302.35135 486.97291,286.29729 711.72971,-302.35135 465.56751,-297 Z"
       id="path57"
       sodipodi:insensitive="true" /><path
       style="fill:#ffffff;fill-opacity:0.971338;stroke:#000000;stroke-width:0.871;stroke-linecap:round;stroke-linejoin:round;stroke-miterlimit:21.5"
       d="M 117.30328,-28.379827 C 433.26534,280.01428 433.26534,280.01428 433.26534,280.01428 L 88.923454,-34.05579 Z"
       id="path58" /><path
       style="fill:#ffffff;fill-opacity:0.971338;stroke:#000000;stroke-width:0.871;stroke-linecap:round;stroke-linejoin:round;stroke-miterlimit:21.5"
       d="M -17.027895,374.61369 391.64159,312.17809 -24.595849,355.69382 Z"
       id="path59" /><path
       style="fill:#ffffff;fill-opacity:0.971338;stroke:#000000;stroke-width:0.871;stroke-linecap:round;stroke-linejoin:round;stroke-miterlimit:21.5"
       d="M -18.919884,584.62441 416.23744,355.69382 -18.919884,614.89624 Z"
       id="path60" /><path
       style="fill:#ffffff;fill-opacity:0.971338;stroke:#000000;stroke-width:0.871;stroke-linecap:round;stroke-linejoin:round;stroke-miterlimit:21.5"
       d="M 461.64518,249.74247 452.18521,-96.491408 H 431.37335 Z"
       id="path61" /><path
       style="fill:#ffffff;fill-opacity:0.971338;stroke:#000000;stroke-width:0.871;stroke-linecap:round;stroke-linejoin:round;stroke-miterlimit:21.5"
       d="M 734.0915,-28.379827 503.2689,257.31042 760.57934,-28.379827 Z"
       id="path62" /><path
       style="fill:#ffffff;fill-opacity:0.971338;stroke:#000000;stroke-width:0.871;stroke-linecap:round;stroke-linejoin:round;stroke-miterlimit:21.5"
       d="M 919.50637,94.59942 522.1888,289.47422 923.29033,122.97924 Z"
       id="path63" /><path
       style="fill:#ffffff;fill-opacity:0.971338;stroke:#000000;stroke-width:0.871;stroke-linecap:round;stroke-linejoin:round;stroke-miterlimit:21.5"
       d="M 928.96631,401.10153 533.54073,331.09797 930.85829,421.91342 Z"
       id="path64" /><path
       style="fill:#ffffff;fill-opacity:0.971338;stroke:#000000;stroke-width:0.871;stroke-linecap:round;stroke-linejoin:round;stroke-miterlimit:21.5"
       d="M 753.01138,635.7081 501.37692,351.90985 745.44342,654.62797 Z"
       id="path65" /><path
       style="fill:#ffffff;fill-opacity:0.971338;stroke:#000000;stroke-width:0.871;stroke-linecap:round;stroke-linejoin:round;stroke-miterlimit:21.5"
       d="m 454.07722,683.00782 c -5.67597,-15.13592 7.56796,-325.42202 7.56796,-325.42202 l -35.9478,317.85406 z"
       id="path66" /><path
       style="fill:#999999;fill-opacity:1;stroke:#000000;stroke-width:0.871;stroke-linecap:round;stroke-linejoin:round;stroke-miterlimit:21.5"
       d="m -26.756757,12.04054 c 5.351352,1.337838 432.121627,251.51351 432.121627,251.51351 L 41.472971,-18.72973 l -82.945942,8.027027 z"
       id="path67" /><path
       style="fill:#999999;fill-opacity:1;stroke:#000000;stroke-width:0.871;stroke-linecap:round;stroke-linejoin:round;stroke-miterlimit:21.5"
       d="M -32.108108,333.1216 373.25675,307.70269 -57.527025,262.21621 Z"
       id="path68" /><path
       style="fill:#999999;fill-opacity:1;stroke:#000000;stroke-width:0.871;stroke-linecap:round;stroke-linejoin:round;stroke-miterlimit:21.5"
       d="M -9.3648648,662.22972 408.04054,367.9054 69.567567,666.24324 Z"
       id="path69" /><path
       style="fill:#999999;fill-opacity:1;stroke:#000000;stroke-width:0.871;stroke-linecap:round;stroke-linejoin:round;stroke-miterlimit:21.5"
       d="m 456.2027,366.56756 -129.77026,339.8108 c 0,0 73.58107,36.12163 73.58107,5.35135 0,-30.77027 56.18919,-345.16215 56.18919,-345.16215 z"
       id="path70" /><path
       style="fill:#999999;fill-opacity:1;stroke:#000000;stroke-width:0.871;stroke-linecap:round;stroke-linejoin:round;stroke-miterlimit:21.5"
       d="M 501.68918,357.20271 670.25675,703.7027 c 0,0 77.59459,-25.41891 64.2162,-32.10811 C 721.09459,664.9054 501.68918,357.20271 501.68918,357.20271 Z"
       id="path71" /><path
       style="fill:#999999;fill-opacity:1;stroke:#000000;stroke-width:0.871;stroke-linecap:round;stroke-linejoin:round;stroke-miterlimit:21.5"
       d="M 976.6216,478.94594 C 960.56756,477.6081 527.1081,331.78379 527.1081,331.78379 l 446.83782,208.7027 z"
       id="path72" /><path
       style="fill:#999999;fill-opacity:1;stroke:#000000;stroke-width:0.871;stroke-linecap:round;stroke-linejoin:round;stroke-miterlimit:21.5"
       d="M 971.27027,129.77027 551.18917,284.95945 980.63512,204.68919 Z"
       id="path73" /><path
       style="fill:#999999;fill-opacity:1;stroke:#000000;stroke-width:0.871;stroke-linecap:round;stroke-linejoin:round;stroke-miterlimit:21.5"
       d="M 664.9054,-85.621621 509.71621,240.81081 727.78378,-68.229728 Z"
       id="path74" /><path
       style="fill:#999999;fill-opacity:1;stroke:#000000;stroke-width:0.871;stroke-linecap:round;stroke-linejoin:round;stroke-miterlimit:21.5"
       d="M 341.14864,-94.986484 457.54054,250.17567 389.3108,-116.39189 Z"
       id="path75" /><path
       style="fill:#666666;fill-opacity:1;stroke:#000000;stroke-width:0.871;stroke-linecap:round;stroke-linejoin:round;stroke-miterlimit:21.5;stroke-opacity:0"
       d="M 159.2027,-29.432432 315.72972,143.14865 173.91892,-36.12162 Z"
       id="path76" /><path
       style="fill:#666666;fill-opacity:1;stroke:#000000;stroke-width:0.871;stroke-linecap:round;stroke-linejoin:round;stroke-miterlimit:21.5;stroke-opacity:0"
       d="M 318.4054,-46.824323 405.36487,149.83784 299.67568,-41.472971 Z"
       id="path77" /><path
       style="fill:#666666;fill-opacity:1;stroke:#000000;stroke-width:0.871;stroke-linecap:round;stroke-linejoin:round;stroke-miterlimit:21.5;stroke-opacity:0"
       d="M 282.28377,-41.472971 370.58107,124.41892 263.55405,-38.797296 Z"
       id="path78" /><path
       style="fill:#666666;fill-opacity:1;stroke:#000000;stroke-width:0.871;stroke-linecap:round;stroke-linejoin:round;stroke-miterlimit:21.5;stroke-opacity:0"
       d="M 195.32432,-36.12162 322.41892,132.44594 219.4054,-42.81081 Z"
       id="path79" /><path
       style="fill:#666666;fill-opacity:1;stroke:#000000;stroke-width:0.871;stroke-linecap:round;stroke-linejoin:round;stroke-miterlimit:21.5;stroke-opacity:0"
       d="M 228.77027,-54.85135 331.78379,123.08108 242.14865,-64.216216 Z"
       id="path80" /><path
       style="fill:#666666;fill-opacity:1;stroke:#000000;stroke-width:0.871;stroke-linecap:round;stroke-linejoin:round;stroke-miterlimit:21.5;stroke-opacity:0"
       d="M -28.094593,88.297297 251.51351,207.36486 -28.094593,105.68919 Z"
       id="path81" /><path
       style="fill:#666666;fill-opacity:1;stroke:#000000;stroke-width:0.871;stroke-linecap:round;stroke-linejoin:round;stroke-miterlimit:21.5;stroke-opacity:0"
       d="M -21.405405,230.10811 247.5,271.58108 -20.067567,214.05405 Z"
       id="path82" /><path
       style="fill:#666666;fill-opacity:1;stroke:#000000;stroke-width:0.871;stroke-linecap:round;stroke-linejoin:round;stroke-miterlimit:21.5;stroke-opacity:0"
       d="M -25.418919,179.27027 234.12162,243.48648 -29.432432,161.87838 Z"
       id="path83" /><path
       style="fill:#666666;fill-opacity:1;stroke:#000000;stroke-width:0.871;stroke-linecap:round;stroke-linejoin:round;stroke-miterlimit:21.5;stroke-opacity:0"
       d="M -28.094593,124.41892 216.72973,214.05405 -26.756757,143.14865 Z"
       id="path84" /><path
       style="fill:#666666;fill-opacity:1;stroke:#000000;stroke-width:0.871;stroke-linecap:round;stroke-linejoin:round;stroke-miterlimit:21.5;stroke-opacity:0"
       d="M -22.743243,400.01351 222.08108,355.86487 -20.067567,417.40539 Z"
       id="path85" /><path
       style="fill:#666666;fill-opacity:1;stroke:#000000;stroke-width:0.871;stroke-linecap:round;stroke-linejoin:round;stroke-miterlimit:21.5;stroke-opacity:0"
       d="M -18.72973,440.14863 220.74324,378.60811 -21.405405,457.54054 Z"
       id="path86" /><path
       style="fill:#666666;fill-opacity:1;stroke:#000000;stroke-width:0.871;stroke-linecap:round;stroke-linejoin:round;stroke-miterlimit:21.5;stroke-opacity:0"
       d="m 228.77027,402.68919 -248.837837,73.58107 1.337837,13.37839 z"
       id="path87" /><path
       style="fill:#666666;fill-opacity:1;stroke:#000000;stroke-width:0.871;stroke-linecap:round;stroke-linejoin:round;stroke-miterlimit:21.5;stroke-opacity:0"
       d="m 216.72973,424.09459 -231.445946,85.62162 v 37.45945 z"
       id="path88" /><path
       style="fill:#666666;fill-opacity:1;stroke:#000000;stroke-width:0.871;stroke-linecap:round;stroke-linejoin:round;stroke-miterlimit:21.5;stroke-opacity:0"
       d="m 343.82432,457.54054 -169.9054,176.59458 20.06756,2.67568 z"
       id="path89" /><path
       style="fill:#666666;fill-opacity:1;stroke:#000000;stroke-width:0.871;stroke-linecap:round;stroke-linejoin:round;stroke-miterlimit:21.5;stroke-opacity:0"
       d="m 355.86487,462.8919 -136.45947,175.25674 18.72973,2.67568 z"
       id="path90" /><path
       style="fill:#666666;fill-opacity:1;stroke:#000000;stroke-width:0.871;stroke-linecap:round;stroke-linejoin:round;stroke-miterlimit:21.5;stroke-opacity:0"
       d="m 367.9054,469.58107 -86.95947,184.62161 -17.39188,-2.67565 z"
       id="path91" /><path
       style="fill:#666666;fill-opacity:1;stroke:#000000;stroke-width:0.871;stroke-linecap:round;stroke-linejoin:round;stroke-miterlimit:21.5;stroke-opacity:0"
       d="m 385.2973,482.95946 -84.28378,169.90538 21.4054,9.36488 z"
       id="path92" /><path
       style="fill:#666666;fill-opacity:1;stroke:#000000;stroke-width:0.871;stroke-linecap:round;stroke-linejoin:round;stroke-miterlimit:21.5;stroke-opacity:0"
       d="m 474.93242,477.6081 8.02704,160.54054 13.37836,-2.67568 z"
       id="path93" /><path
       style="fill:#666666;fill-opacity:1;stroke:#000000;stroke-width:0.871;stroke-linecap:round;stroke-linejoin:round;stroke-miterlimit:21.5;stroke-opacity:0"
       d="m 535.13513,480.28378 57.52703,148.49999 -18.72975,-2.67568 z"
       id="path94" /><path
       style="fill:#666666;fill-opacity:1;stroke:#000000;stroke-width:0.871;stroke-linecap:round;stroke-linejoin:round;stroke-miterlimit:21.5;stroke-opacity:0"
       d="m 517.74325,484.2973 41.47296,144.48647 -18.72972,1.33783 z"
       id="path95" /><path
       style="fill:#666666;fill-opacity:1;stroke:#000000;stroke-width:0.871;stroke-linecap:round;stroke-linejoin:round;stroke-miterlimit:21.5;stroke-opacity:0"
       d="m 497.67566,488.31081 13.37839,147.16215 16.05405,-4.01352 z"
       id="path96" /><path
       style="fill:#666666;fill-opacity:1;stroke:#000000;stroke-width:0.871;stroke-linecap:round;stroke-linejoin:round;stroke-miterlimit:21.5;stroke-opacity:0"
       d="M 769.25674,620.75676 C 763.90539,615.4054 632.79728,476.27026 632.79728,476.27026 l 152.51353,135.12162 z"
       id="path97" /><path
       style="fill:#666666;fill-opacity:1;stroke:#000000;stroke-width:0.871;stroke-linecap:round;stroke-linejoin:round;stroke-miterlimit:21.5;stroke-opacity:0"
       d="m 666.24324,472.25674 137.7973,143.14866 13.37836,-1.33784 z"
       id="path98" /><path
       style="fill:#666666;fill-opacity:1;stroke:#000000;stroke-width:0.871;stroke-linecap:round;stroke-linejoin:round;stroke-miterlimit:21.5;stroke-opacity:0"
       d="m 694.33783,466.90539 141.81082,143.14865 16.05404,-4.01351 z"
       id="path99" /><path
       style="fill:#666666;fill-opacity:1;stroke:#000000;stroke-width:0.871;stroke-linecap:round;stroke-linejoin:round;stroke-miterlimit:21.5;stroke-opacity:0"
       d="M 884.3108,611.39188 713.06755,468.24323 897.68917,610.05404 Z"
       id="path100" /><path
       style="fill:#666666;fill-opacity:1;stroke:#000000;stroke-width:0.871;stroke-linecap:round;stroke-linejoin:round;stroke-miterlimit:21.5;stroke-opacity:0"
       d="M 747.85134,466.90539 912.4054,600.68917 931.13512,573.93241 Z"
       id="path101" /><path
       style="fill:#666666;fill-opacity:1;stroke:#000000;stroke-width:0.871;stroke-linecap:round;stroke-linejoin:round;stroke-miterlimit:21.5;stroke-opacity:0"
       d="M 921.77025,374.59459 735.81079,349.17567 927.1216,363.89188 Z"
       id="path102" /><path
       style="fill:#666666;fill-opacity:1;stroke:#000000;stroke-width:0.871;stroke-linecap:round;stroke-linejoin:round;stroke-miterlimit:21.5;stroke-opacity:0"
       d="m 742.49999,327.77027 177.93242,4.01352 v 24.08108 z"
       id="path103" /><path
       style="fill:#666666;fill-opacity:1;stroke:#000000;stroke-width:0.871;stroke-linecap:round;stroke-linejoin:round;stroke-miterlimit:21.5;stroke-opacity:0"
       d="m 746.5135,307.70269 172.58107,-16.05405 1.33784,22.74324 z"
       id="path104" /><path
       style="fill:#666666;fill-opacity:1;stroke:#000000;stroke-width:0.871;stroke-linecap:round;stroke-linejoin:round;stroke-miterlimit:21.5;stroke-opacity:0"
       d="M 745.17567,280.94593 912.4054,252.85135 c 0,0 6.68917,24.08109 0,24.08109 -6.6892,0 -167.22973,4.01349 -167.22973,4.01349 z"
       id="path105" /><path
       style="fill:#666666;fill-opacity:1;stroke:#000000;stroke-width:0.871;stroke-linecap:round;stroke-linejoin:round;stroke-miterlimit:21.5;stroke-opacity:0"
       d="M 913.74324,26.756757 714.40539,163.21621 921.77025,54.85135 Z"
       id="path106" /><path
       style="fill:#666666;fill-opacity:1;stroke:#000000;stroke-width:0.871;stroke-linecap:round;stroke-linejoin:round;stroke-miterlimit:21.5;stroke-opacity:0"
       d="M 891,-17.391892 C 888.32432,-9.3648648 722.43243,136.45946 722.43243,136.45946 L 908.39188,2.6756757 Z"
       id="path107" /><path
       style="fill:#666666;fill-opacity:1;stroke:#000000;stroke-width:0.871;stroke-linecap:round;stroke-linejoin:round;stroke-miterlimit:21.5;stroke-opacity:0"
       d="M 850.86485,-24.081081 715.74323,104.35135 837.48649,-28.094593 Z"
       id="path108" /><path
       style="fill:#666666;fill-opacity:1;stroke:#000000;stroke-width:0.871;stroke-linecap:round;stroke-linejoin:round;stroke-miterlimit:21.5;stroke-opacity:0"
       d="M 808.05405,-38.797296 701.02703,77.594594 822.77026,-32.108108 Z"
       id="path109" /><path
       style="fill:#666666;fill-opacity:1;stroke:#000000;stroke-width:0.871;stroke-linecap:round;stroke-linejoin:round;stroke-miterlimit:21.5;stroke-opacity:0"
       d="M 478.94594,-57.527025 477.6081,105.68919 494.99998,-56.189189 Z"
       id="path110" /><path
       style="fill:#666666;fill-opacity:1;stroke:#000000;stroke-width:0.871;stroke-linecap:round;stroke-linejoin:round;stroke-miterlimit:21.5;stroke-opacity:0"
       d="m 505.7027,104.35135 1.33784,-159.2027 12.04055,2.675676 z"
       id="path111" /><path
       style="fill:#666666;fill-opacity:1;stroke:#000000;stroke-width:0.871;stroke-linecap:round;stroke-linejoin:round;stroke-miterlimit:21.5;stroke-opacity:0"
       d="M 539.14865,-53.513513 521.75674,100.33784 553.86485,-48.162162 Z"
       id="path112" /><path
       style="fill:#666666;fill-opacity:1;stroke:#000000;stroke-width:0.871;stroke-linecap:round;stroke-linejoin:round;stroke-miterlimit:21.5;stroke-opacity:0"
       d="m 547.17566,92.310809 24.0811,-136.459456 34.78377,5.351351 z"
       id="path113" /></g></svg>
