<?xml version="1.0" encoding="UTF-8" standalone="no"?>
<!-- Created with Inkscape (http://www.inkscape.org/) -->

<svg
   width="300mm"
   height="300mm"
   viewBox="0 0 300 300"
   version="1.1"
   id="svg1"
   xml:space="preserve"
   inkscape:version="1.3 (0e150ed6c4, 2023-07-21)"
   sodipodi:docname="dibujo11.svg"
   inkscape:export-filename="dibujo.png"
   inkscape:export-xdpi="96"
   inkscape:export-ydpi="96"
   xmlns:inkscape="http://www.inkscape.org/namespaces/inkscape"
   xmlns:sodipodi="http://sodipodi.sourceforge.net/DTD/sodipodi-0.dtd"
   xmlns="http://www.w3.org/2000/svg"
   xmlns:svg="http://www.w3.org/2000/svg"><sodipodi:namedview
     id="namedview1"
     pagecolor="#ffffff"
     bordercolor="#000000"
     borderopacity="0.25"
     inkscape:showpageshadow="2"
     inkscape:pageopacity="0.0"
     inkscape:pagecheckerboard="0"
     inkscape:deskcolor="#d1d1d1"
     inkscape:document-units="mm"
     inkscape:zoom="0.72426347"
     inkscape:cx="385.21893"
     inkscape:cy="501.88918"
     inkscape:window-width="1920"
     inkscape:window-height="1009"
     inkscape:window-x="-8"
     inkscape:window-y="-8"
     inkscape:window-maximized="1"
     inkscape:current-layer="layer1"
     inkscape:export-bgcolor="#ffffff00"><inkscape:page
       x="0"
       y="0"
       width="300"
       height="300"
       id="page1"
       margin="0 0 0 0"
       bleed="0"
       inkscape:export-filename="dibujo.png"
       inkscape:export-xdpi="96"
       inkscape:export-ydpi="96" /><sodipodi:guide
       position="0,300"
       orientation="0,1133.8583"
       id="guide1"
       inkscape:locked="false" /><sodipodi:guide
       position="300,300"
       orientation="1133.8583,0"
       id="guide2"
       inkscape:locked="false" /><sodipodi:guide
       position="300,-2.2888183e-06"
       orientation="0,-1133.8583"
       id="guide3"
       inkscape:locked="false" /><sodipodi:guide
       position="0,-2.2888183e-06"
       orientation="-1133.8583,0"
       id="guide4"
       inkscape:locked="false" /></sodipodi:namedview><defs
     id="defs1"><clipPath
       clipPathUnits="userSpaceOnUse"
       id="clipPath20"><path
         style="fill:#000000;stroke-width:1.38071"
         d="M 92.507772,461.84851 V 143.59415 H 505.34097 918.17416 V 461.84851 780.10286 H 505.34097 92.507772 Z"
         id="path21" /></clipPath><clipPath
       clipPathUnits="userSpaceOnUse"
       id="clipPath21"><path
         style="fill:#000000;stroke-width:1.38071"
         d="M 92.507772,461.84851 V 143.59415 H 505.34097 918.17416 V 461.84851 780.10286 H 505.34097 92.507772 Z"
         id="path22" /></clipPath><clipPath
       clipPathUnits="userSpaceOnUse"
       id="clipPath22"><path
         style="fill:#000000;stroke-width:1.38071"
         d="M 92.507772,461.84851 V 143.59415 H 505.34097 918.17416 V 461.84851 780.10286 H 505.34097 92.507772 Z"
         id="path23" /></clipPath><clipPath
       clipPathUnits="userSpaceOnUse"
       id="clipPath23"><path
         style="fill:#000000;stroke-width:1.38071"
         d="M 92.507772,461.84851 V 143.59415 H 505.34097 918.17416 V 461.84851 780.10286 H 505.34097 92.507772 Z"
         id="path24" /></clipPath><clipPath
       clipPathUnits="userSpaceOnUse"
       id="clipPath24"><path
         style="fill:#000000;stroke-width:1.38071"
         d="M 92.507772,461.84851 V 143.59415 H 505.34097 918.17416 V 461.84851 780.10286 H 505.34097 92.507772 Z"
         id="path25" /></clipPath><clipPath
       clipPathUnits="userSpaceOnUse"
       id="clipPath25"><path
         style="fill:#000000;stroke-width:1.38071"
         d="M 92.507772,461.84851 V 143.59415 H 505.34097 918.17416 V 461.84851 780.10286 H 505.34097 92.507772 Z"
         id="path26" /></clipPath><clipPath
       clipPathUnits="userSpaceOnUse"
       id="clipPath26"><path
         style="fill:#000000;stroke-width:1.38071"
         d="M 92.507772,461.84851 V 143.59415 H 505.34097 918.17416 V 461.84851 780.10286 H 505.34097 92.507772 Z"
         id="path27" /></clipPath><clipPath
       clipPathUnits="userSpaceOnUse"
       id="clipPath27"><path
         style="fill:#000000;stroke-width:1.38071"
         d="M 92.507772,461.84851 V 143.59415 H 505.34097 918.17416 V 461.84851 780.10286 H 505.34097 92.507772 Z"
         id="path28" /></clipPath><clipPath
       clipPathUnits="userSpaceOnUse"
       id="clipPath28"><path
         style="fill:#000000;stroke-width:1.38071"
         d="M 92.507772,461.84851 V 143.59415 H 505.34097 918.17416 V 461.84851 780.10286 H 505.34097 92.507772 Z"
         id="path29" /></clipPath></defs><g
     inkscape:label="Capa 1"
     inkscape:groupmode="layer"
     id="layer1"><rect
       style="fill:#000000;stroke-width:0.264583"
       id="rect9"
       width="25.937263"
       height="0"
       x="236.35794"
       y="203.845" /><path
       style="fill:#000000;stroke-width:1.38071"
       d="m 562.06473,415.91801 4.02761,-4.50909 V 348.60825 285.8076 L 511.209,285.828 c -59.39896,0.022 -59.59539,0.0453 -63.9962,7.57357 -2.20598,3.77366 -2.43036,9.64361 -2.52229,65.98727 l -0.10092,61.84513 56.72377,-0.4034 56.72377,-0.40341 z"
       id="path20"
       transform="matrix(0.26458333,0,0,0.26458333,107.40221,-40.549814)"
       clip-path="url(#clipPath28)" /><path
       style="fill:#800000;stroke-width:1.37953;stroke-dasharray:none"
       d="m 434.9246,356.91432 0.69036,-63.5128 3.35135,-6.55839 c 1.84324,-3.60711 3.81814,-6.55839 4.38869,-6.55839 0.57054,0 2.1241,-1.08731 3.45235,-2.41624 2.20045,-2.20158 7.57596,-2.47759 60.50482,-3.10661 l 58.08981,-0.69036 0.37453,-28.19843 0.37452,-28.19843 -3.73944,-3.90315 -3.73945,-3.90314 h -87.22869 -87.22867 l -3.4714,3.47139 c -1.90926,1.90927 -3.85795,5.4042 -4.33041,7.76652 -0.47247,2.36231 -0.85903,44.90139 -0.85903,94.53128 0,78.84261 0.27417,90.9214 2.17143,95.66311 3.53792,8.8421 7.11358,9.84479 33.72711,9.45775 l 22.78176,-0.33132 z"
       id="path19"
       transform="matrix(0.26458333,0,0,0.26458333,107.0369,-40.1845)"
       clip-path="url(#clipPath27)" /><path
       style="fill:#000080;stroke-width:1.38071"
       d="m 630.50119,492.29263 4.6268,-4.76406 -0.0459,-96.37317 c -0.0439,-92.00679 -0.16266,-96.51308 -2.62245,-99.46111 -4.21946,-5.057 -8.81843,-5.88669 -32.62968,-5.88669 h -22.69188 v 63.4313 c 0,35.52999 -0.54005,63.76509 -1.22776,64.19011 -0.67526,0.41735 -1.63237,2.37093 -2.1269,4.34131 -0.7962,3.1723 -2.61201,5.25617 -10.41729,11.95516 -1.55642,1.33582 -15.78272,1.83877 -60.40619,2.13557 l -58.37031,0.38823 v 26.03266 c 0,27.6054 0.55842,30.5102 6.92698,36.03363 3.07956,2.67088 5.35373,2.74112 88.75918,2.74112 h 85.59861 z"
       id="path18"
       transform="matrix(0.26458333,0,0,0.26458333,107.40221,-40.549814)"
       clip-path="url(#clipPath26)" /><path
       style="fill:#e4ca00;fill-opacity:1;stroke-width:1.38071"
       d="m 344.85492,594.05178 -0.36702,-38.31479 h -22.78177 -22.78176 l -0.36702,38.31479 -0.36702,38.31478 h 23.5158 23.51581 z"
       id="path17"
       transform="matrix(0.26458333,0,0,0.26458333,18.99631,7.6715884)"
       clip-path="url(#clipPath25)" /><path
       style="fill:#e4ca00;fill-opacity:1;stroke-width:1.38071"
       d="m 835.33138,663.43263 v -20.02034 h -33.13712 -33.13711 v -5.48865 -5.48866 l 22.43659,-0.37937 22.43659,-0.37938 v -12.42642 -12.42642 l -22.43659,-0.37938 -22.43659,-0.37937 v -5.48866 -5.48865 h 33.17503 33.17501 l -0.38308,-19.67516 -0.38309,-19.67516 -55.1371,-0.36125 c -43.19312,-0.28299 -55.37666,0.0161 -56.24292,1.38071 -1.32678,2.09007 -1.54824,124.4554 -0.22761,125.77601 0.50625,0.50627 25.98041,0.92048 56.60923,0.92048 h 55.68876 z"
       id="path16"
       transform="matrix(0.26458333,0,0,0.26458333,18.99631,7.6715884)"
       clip-path="url(#clipPath24)" /><path
       style="fill:#e4ca00;fill-opacity:1;stroke-width:1.38071"
       d="m 707.01443,676.20422 6.79146,-7.24874 0.0114,-18.10825 c 0.0104,-16.5815 -0.24638,-18.44407 -3.04558,-22.0914 -1.68131,-2.19074 -3.85593,-4.48003 -4.83249,-5.08731 -3.10244,-1.92927 -1.92745,-6.24585 3.05694,-11.23022 l 4.83249,-4.8325 -0.004,-19.03084 -0.004,-19.03082 -7.0696,-7.24874 -7.06958,-7.24875 h -48.04173 c -26.42294,0 -49.02452,0.37713 -50.22571,0.83808 -1.94762,0.74737 -2.184,7.69619 -2.184,64.20316 v 63.36507 h 50.49675 50.49676 z"
       id="path15"
       transform="matrix(0.26458333,0,0,0.26458333,18.99631,7.6715884)"
       clip-path="url(#clipPath23)" /><path
       style="fill:#e4ca00;fill-opacity:1;stroke-width:1.38071"
       d="m 584.62489,676.22792 6.32028,-7.22503 v -56.26146 -56.26148 l -3.1066,-0.76784 c -1.70863,-0.4223 -12.11576,-0.58947 -23.12694,-0.37148 l -20.02034,0.39636 -0.36458,43.83764 -0.36456,43.83764 h -10.31657 -10.31656 l -0.36456,-43.83764 -0.36458,-43.83764 -22.26682,-0.37856 c -22.13995,-0.37641 -22.27162,-0.36069 -23.10809,2.76142 -0.46271,1.727 -0.84976,27.46035 -0.86013,57.18524 l -0.0189,54.04527 6.47484,7.05128 6.47483,7.0513 h 44.50448 44.50448 z"
       id="path14"
       transform="matrix(0.26458333,0,0,0.26458333,18.99631,7.6715884)"
       clip-path="url(#clipPath22)" /><path
       style="fill:#e4ca00;fill-opacity:1;stroke-width:1.38071"
       d="m 457.01791,682.41741 c 0.001,-0.56954 2.48548,-3.83148 5.52095,-7.24874 l 5.51903,-6.21321 0.002,-18.98481 0.002,-18.9848 h -23.47212 -23.47212 v 6.21321 6.21321 h -9.66499 -9.66499 V 620.6305 c 0,-12.52997 -0.15533,-23.24775 -0.34518,-23.8173 -0.18985,-0.56954 4.1594,-1.21808 9.66499,-1.4412 l 10.01017,-0.40567 v 6.2737 6.2737 h 23.47212 23.47212 l -0.0462,-18.98481 -0.0462,-18.9848 -6.12292,-6.76759 -6.12292,-6.76758 -44.17295,-0.23409 -44.17296,-0.23407 -6.96535,7.05297 -6.96535,7.05298 0.15946,49.73088 0.15944,49.73089 6.40673,7.06294 6.40672,7.06294 45.21835,0.10927 c 24.87009,0.0601 45.21921,-0.35671 45.22025,-0.92625 z"
       id="path13"
       transform="matrix(0.26458333,0,0,0.26458333,18.99631,7.6715884)"
       clip-path="url(#clipPath21)" /><path
       style="fill:#e4ca00;fill-opacity:1;stroke-width:1.38071"
       d="m 222.2948,662.05189 v -21.40105 h 9.62902 9.62904 l 0.38113,21.05587 0.38114,21.05588 h 51.08639 51.08638 l 0.38309,-19.67516 0.38308,-19.67516 h -27.63278 -27.63277 l -0.36457,-43.83764 -0.36457,-43.83764 h -23.47212 -23.47213 l -0.37937,22.43659 -0.37938,22.43658 h -9.59659 -9.59659 l -0.37938,-22.43658 -0.37938,-22.43659 h -22.78177 -22.78176 l -0.36001,62.13209 c -0.19801,34.17264 -0.0622,62.90873 0.30184,63.85797 0.49256,1.28443 6.50035,1.72589 23.48696,1.72589 h 22.8251 z"
       id="path12"
       transform="matrix(0.26458333,0,0,0.26458333,18.99631,7.6715884)"
       clip-path="url(#clipPath20)" /><rect
       style="fill:#640000;fill-opacity:1;stroke-width:0.374;stroke-dasharray:none;paint-order:stroke markers fill"
       id="rect29"
       width="56.98893"
       height="55.527676"
       x="112.51662"
       y="67.948349" /><rect
       style="fill:#000064;fill-opacity:1;stroke-width:0.273593"
       id="rect29-5"
       width="56.98893"
       height="55.527676"
       x="139.21509"
       y="89.755547" /></g></svg>
